<svg xmlns="http://www.w3.org/2000/svg" width="778.208" height="214" viewBox="0 0 778.208 214">
  <path id="パス_341" data-name="パス 341" d="M527.121,208.905A39.716,39.716,0,0,1,507.7,191.39q-7.162-12.419-7.163-35.032V72.609H477.922V52.546l26.115-15.921L517.726,0h30.257V36.941H596.7V72.609h-48.72v83.75q0,9.881,5.727,14.81t14.968,4.936a79.616,79.616,0,0,0,15.285-1.432,107.329,107.329,0,0,0,14.652-3.982v35.346a85.385,85.385,0,0,1-18.948,5.736A128.017,128.017,0,0,1,554.983,214,72.083,72.083,0,0,1,527.121,208.905Zm-500.69,2.705a128.023,128.023,0,0,1-26.114-7.8V164.643a180.371,180.371,0,0,0,30.253,10.5q16.243,4.149,28.66,4.142,13.69,0,19.744-4.142t6.053-10.826a13.831,13.831,0,0,0-2.39-7.963q-2.388-3.5-10.349-7.958a257.106,257.106,0,0,0-24.839-11.463q-16.565-7.006-26.91-13.856A44.8,44.8,0,0,1,5.094,106.524Q0,96.809,0,82.161q0-24.195,18.789-36.3t50-12.1a145.282,145.282,0,0,1,30.889,3.184,143.1,143.1,0,0,1,30.253,10.509L115.6,81.524q-12.74-5.411-24.2-9.073a76.007,76.007,0,0,0-23.247-3.663q-21.02,0-21.018,11.463a11.581,11.581,0,0,0,2.705,7.483q2.7,3.347,10.51,7.168t23.09,10.19a183.9,183.9,0,0,1,25.794,12.577,47.721,47.721,0,0,1,16.717,16.4q5.887,9.873,5.892,25.157,0,26.44-18.631,40.6T57.638,214A175.9,175.9,0,0,1,26.431,211.611ZM628,191.066c-17.912-15.115-26.868-36.758-26.868-64.746,0-27.8,8.4-49.632,25.375-65.866S666.815,36.2,696.3,36.2c27.242,0,47.58,6.9,61.388,20.713,13.62,13.807,20.524,33.584,20.524,59.521V134.9H654.873c.933,13.248,5.784,23.511,15.114,30.6s22.951,10.636,40.863,10.636a90.972,90.972,0,0,0,33.026-6.157c10.822-4.1,19.219-8.583,25.376-13.248h5.971v43.1a209.686,209.686,0,0,1-34.332,10.635,175.244,175.244,0,0,1-35.639,3.359C671.666,213.829,645.917,206.179,628,191.066ZM666.068,77.993c-6.717,5.411-10.449,13.994-11.2,25.936h69.784c-.374-11.2-3.172-19.779-8.4-25.376-5.411-5.784-13.433-8.582-24.628-8.582C681.183,69.971,672.786,72.582,666.068,77.993ZM161.526,191.066c-17.913-15.115-26.869-36.758-26.869-64.746,0-27.8,8.4-49.632,25.376-65.866S200.336,36.2,229.817,36.2c27.241,0,47.578,6.9,61.387,20.713,13.621,13.807,20.524,33.584,20.524,59.521V134.9H188.393c.933,13.248,5.784,23.511,15.115,30.6s22.95,10.636,40.862,10.636a90.963,90.963,0,0,0,33.025-6.157c10.823-4.1,19.22-8.583,25.376-13.248h5.971v43.1a209.677,209.677,0,0,1-34.331,10.635,175.242,175.242,0,0,1-35.638,3.359C205.187,213.829,179.438,206.179,161.526,191.066ZM199.589,77.993c-6.717,5.411-10.449,13.994-11.2,25.936h69.784c-.373-11.2-3.172-19.779-8.4-25.376-5.411-5.784-13.434-8.582-24.629-8.582C214.7,69.971,206.307,72.582,199.589,77.993ZM428.744,210.816V109.229q0-18.785-6.687-28.184-6.687-9.384-21.337-9.394-21.659,0-29.615,14.81t-7.963,42.514v81.841H315.694V36.941H352l6.367,22.294h2.549a47.807,47.807,0,0,1,22.77-19.427,78.994,78.994,0,0,1,30.73-6.052q28.019,0,44.9,15.125T476.192,97.45V210.816Z" fill="#fff"/>
</svg>
