<svg xmlns="http://www.w3.org/2000/svg" width="50" height="67" viewBox="0 0 50 67">
  <g id="グループ_48" data-name="グループ 48" transform="translate(-1064.989 -988.329)">
    <g id="長方形_109" data-name="長方形 109">
      <g id="グループ_24" data-name="グループ 24">
        <rect id="長方形_134" data-name="長方形 134" width="17" height="17" rx="2" transform="translate(1064.989 1013.329)" fill="none"/>
      </g>
      <g id="グループ_25" data-name="グループ 25">
        <path id="パス_27" data-name="パス 27" d="M1079.989,1030.329h-13a2,2,0,0,1-2-2v-13a2,2,0,0,1,2-2h13a2,2,0,0,1,2,2v13A2,2,0,0,1,1079.989,1030.329Zm-13-15h0v13h13v-13Z" fill="#4b60ff"/>
      </g>
    </g>
    <g id="長方形_110" data-name="長方形 110">
      <g id="グループ_26" data-name="グループ 26">
        <rect id="長方形_135" data-name="長方形 135" width="7" height="7" rx="1" transform="translate(1069.989 1018.329)" fill="none"/>
      </g>
      <g id="グループ_27" data-name="グループ 27">
        <path id="パス_28" data-name="パス 28" d="M1076.989,1025.329h-7v-7h7Zm-5-2h3v-3h-3Z" fill="#09adf5"/>
      </g>
    </g>
    <g id="パス_5" data-name="パス 5">
      <rect id="長方形_136" data-name="長方形 136" width="25.449" height="3" transform="translate(1080.54 1020.329)" fill="#4b60ff"/>
    </g>
    <g id="長方形_113" data-name="長方形 113">
      <g id="グループ_28" data-name="グループ 28">
        <rect id="長方形_137" data-name="長方形 137" width="11" height="11" rx="2" transform="translate(1103.989 1016.329)" fill="none"/>
      </g>
      <g id="グループ_29" data-name="グループ 29">
        <path id="パス_29" data-name="パス 29" d="M1112.989,1027.329h-7a2,2,0,0,1-2-2v-7a2,2,0,0,1,2-2h7a2,2,0,0,1,2,2v7A2,2,0,0,1,1112.989,1027.329Zm-7-9h0v7h7v-7Z" fill="#4b60ff"/>
      </g>
    </g>
    <g id="長方形_114" data-name="長方形 114">
      <g id="グループ_30" data-name="グループ 30">
        <rect id="長方形_138" data-name="長方形 138" width="3" height="3" transform="translate(1107.989 1020.329)" fill="#09adf5"/>
      </g>
      <g id="グループ_31" data-name="グループ 31">
        <rect id="長方形_139" data-name="長方形 139" width="3" height="3" transform="translate(1107.989 1020.329)" fill="#09adf5"/>
      </g>
    </g>
    <g id="パス_7" data-name="パス 7">
      <rect id="長方形_140" data-name="長方形 140" width="11.95" height="3" transform="translate(1094.04 1006.329)" fill="#4b60ff"/>
    </g>
    <g id="長方形_115" data-name="長方形 115">
      <g id="グループ_32" data-name="グループ 32">
        <rect id="長方形_141" data-name="長方形 141" width="11" height="11" rx="2" transform="translate(1103.989 1002.329)" fill="none"/>
      </g>
      <g id="グループ_33" data-name="グループ 33">
        <path id="パス_30" data-name="パス 30" d="M1112.989,1013.329h-7a2,2,0,0,1-2-2v-7a2,2,0,0,1,2-2h7a2,2,0,0,1,2,2v7A2,2,0,0,1,1112.989,1013.329Zm-7-9h0v7h7v-7Z" fill="#4b60ff"/>
      </g>
    </g>
    <g id="長方形_116" data-name="長方形 116">
      <g id="グループ_34" data-name="グループ 34">
        <rect id="長方形_142" data-name="長方形 142" width="3" height="3" transform="translate(1107.989 1006.329)" fill="#09adf5"/>
      </g>
      <g id="グループ_35" data-name="グループ 35">
        <rect id="長方形_143" data-name="長方形 143" width="3" height="3" transform="translate(1107.989 1006.329)" fill="#09adf5"/>
      </g>
    </g>
    <g id="パス_8" data-name="パス 8">
      <rect id="長方形_144" data-name="長方形 144" width="11.95" height="3" transform="translate(1094.04 1034.329)" fill="#4b60ff"/>
    </g>
    <g id="長方形_117" data-name="長方形 117">
      <g id="グループ_36" data-name="グループ 36">
        <rect id="長方形_145" data-name="長方形 145" width="11" height="11" rx="2" transform="translate(1103.989 1030.329)" fill="none"/>
      </g>
      <g id="グループ_37" data-name="グループ 37">
        <path id="パス_31" data-name="パス 31" d="M1112.989,1041.329h-7a2,2,0,0,1-2-2v-7a2,2,0,0,1,2-2h7a2,2,0,0,1,2,2v7A2,2,0,0,1,1112.989,1041.329Zm-7-9h0v7h7v-7Z" fill="#4b60ff"/>
      </g>
    </g>
    <g id="長方形_118" data-name="長方形 118">
      <g id="グループ_38" data-name="グループ 38">
        <rect id="長方形_146" data-name="長方形 146" width="3" height="3" transform="translate(1107.989 1034.329)" fill="#09adf5"/>
      </g>
      <g id="グループ_39" data-name="グループ 39">
        <rect id="長方形_147" data-name="長方形 147" width="3" height="3" transform="translate(1107.989 1034.329)" fill="#09adf5"/>
      </g>
    </g>
    <g id="パス_7-2" data-name="パス 7-2">
      <rect id="長方形_148" data-name="長方形 148" width="11.95" height="3" transform="translate(1094.04 992.33)" fill="#4b60ff"/>
    </g>
    <g id="長方形_115-2" data-name="長方形 115-2">
      <g id="グループ_40" data-name="グループ 40">
        <rect id="長方形_149" data-name="長方形 149" width="11" height="11" rx="2" transform="translate(1103.989 988.329)" fill="none"/>
      </g>
      <g id="グループ_41" data-name="グループ 41">
        <path id="パス_32" data-name="パス 32" d="M1112.989,999.33h-7a2,2,0,0,1-2-2v-7a2,2,0,0,1,2-2h7a2,2,0,0,1,2,2v7A2,2,0,0,1,1112.989,999.33Zm-7-9h0v7h7v-7Z" fill="#4b60ff"/>
      </g>
    </g>
    <g id="長方形_116-2" data-name="長方形 116-2">
      <g id="グループ_42" data-name="グループ 42">
        <rect id="長方形_150" data-name="長方形 150" width="3" height="3" transform="translate(1107.989 992.329)" fill="#09adf5"/>
      </g>
      <g id="グループ_43" data-name="グループ 43">
        <rect id="長方形_151" data-name="長方形 151" width="3" height="3" transform="translate(1107.989 992.33)" fill="#09adf5"/>
      </g>
    </g>
    <g id="パス_8-2" data-name="パス 8-2">
      <rect id="長方形_152" data-name="長方形 152" width="11.95" height="3" transform="translate(1094.04 1048.329)" fill="#4b60ff"/>
    </g>
    <g id="長方形_117-2" data-name="長方形 117-2">
      <g id="グループ_44" data-name="グループ 44">
        <rect id="長方形_153" data-name="長方形 153" width="11" height="11" rx="2" transform="translate(1103.989 1044.329)" fill="none"/>
      </g>
      <g id="グループ_45" data-name="グループ 45">
        <path id="パス_33" data-name="パス 33" d="M1112.989,1055.329h-7a2,2,0,0,1-2-2v-7a2,2,0,0,1,2-2h7a2,2,0,0,1,2,2v7A2,2,0,0,1,1112.989,1055.329Zm-7-9h0v7h7v-7Z" fill="#4b60ff"/>
      </g>
    </g>
    <g id="長方形_118-2" data-name="長方形 118-2">
      <g id="グループ_46" data-name="グループ 46">
        <rect id="長方形_154" data-name="長方形 154" width="3" height="3" transform="translate(1107.989 1048.329)" fill="#09adf5"/>
      </g>
      <g id="グループ_47" data-name="グループ 47">
        <rect id="長方形_155" data-name="長方形 155" width="3" height="3" transform="translate(1107.989 1048.329)" fill="#09adf5"/>
      </g>
    </g>
    <g id="長方形_119" data-name="長方形 119">
      <rect id="長方形_156" data-name="長方形 156" width="3" height="59" transform="translate(1092.989 992.329)" fill="#4b60ff"/>
    </g>
  </g>
</svg>
