<svg xmlns="http://www.w3.org/2000/svg" width="60" height="72" viewBox="0 0 60 72">
  <g id="グループ_55" data-name="グループ 55" transform="translate(-1023.023 -1041.234)">
    <g id="長方形_120" data-name="長方形 120" transform="translate(1)">
      <g id="グループ_49" data-name="グループ 49" transform="translate(1030.023 1050.234)">
        <rect id="長方形_157" data-name="長方形 157" width="44" height="63" rx="3" fill="none"/>
      </g>
      <g id="グループ_50" data-name="グループ 50" transform="translate(1030.023 1050.233)">
        <path id="パス_34" data-name="パス 34" d="M1071.153,1113.233h-38.261a2.869,2.869,0,0,1-2.87-2.864V1053.1a2.87,2.87,0,0,1,2.87-2.864h38.261a2.869,2.869,0,0,1,2.87,2.864v57.272A2.869,2.869,0,0,1,1071.153,1113.233Zm-38.261-60.136h0l0,57.272h38.261V1053.1Z" transform="translate(-1030.023 -1050.233)" fill="#4b60ff"/>
      </g>
    </g>
    <g id="長方形_121" data-name="長方形 121" transform="translate(1)">
      <g id="グループ_51" data-name="グループ 51" transform="translate(1035.023 1055.234)">
        <rect id="長方形_158" data-name="長方形 158" width="34" height="53" rx="1" fill="none"/>
      </g>
      <g id="グループ_52" data-name="グループ 52" transform="translate(1035.023 1055.233)">
        <path id="パス_35" data-name="パス 35" d="M1069.023,1108.233h-34v-53h34Zm-32.111-1.893h30.222v-49.214h-30.222Z" transform="translate(-1035.023 -1055.233)" fill="#4b60ff"/>
      </g>
    </g>
    <g id="パス_9" data-name="パス 9">
      <rect id="長方形_159" data-name="長方形 159" width="2" height="7.305" transform="translate(1052.023 1044.233)" fill="#4b60ff"/>
    </g>
    <g id="パス_10" data-name="パス 10" transform="translate(1)">
      <path id="パス_36" data-name="パス 36" d="M1031.479,1083.68h-6.456a1,1,0,0,1-1-1v-17.447h2v16.447h5.456Z" fill="#4b60ff"/>
    </g>
    <g id="パス_11" data-name="パス 11" transform="translate(-1)">
      <path id="パス_37" data-name="パス 37" d="M1081.023,1083.68h-6.456v-2h5.456v-16.447h2v17.447A1,1,0,0,1,1081.023,1083.68Z" fill="#4b60ff"/>
    </g>
    <g id="長方形_122" data-name="長方形 122">
      <rect id="長方形_160" data-name="長方形 160" width="22" height="2" transform="translate(1042.023 1075.234)" fill="#09adf5"/>
    </g>
    <g id="長方形_123" data-name="長方形 123">
      <rect id="長方形_161" data-name="長方形 161" width="22" height="2" transform="translate(1042.023 1081.234)" fill="#09adf5"/>
    </g>
    <g id="長方形_124" data-name="長方形 124">
      <rect id="長方形_162" data-name="長方形 162" width="22" height="2" transform="translate(1042.023 1087.234)" fill="#09adf5"/>
    </g>
    <g id="合体_3" data-name="合体 3" transform="translate(1)">
      <g id="グループ_53" data-name="グループ 53" transform="translate(1044.023 1049.234)">
        <path id="パス_38" data-name="パス 38" d="M1044.912,1058.234a.95.95,0,0,1-.889-1v-4a.949.949,0,0,1,.889-1h1.277l.389-2a.912.912,0,0,1,.779-1h9.333a.913.913,0,0,1,.779,1l.388,2h1.277a.949.949,0,0,1,.889,1v4a.95.95,0,0,1-.889,1Z" transform="translate(-1044.023 -1049.234)" fill="none"/>
      </g>
      <g id="グループ_54" data-name="グループ 54" transform="translate(1044.023 1049.234)">
        <path id="パス_39" data-name="パス 39" d="M1058.245,1056.234v-2h-1.82l-.306-1.572-.277-1.427H1048.2l-.277,1.427-.306,1.572h-1.82v2h12.444m.889,2h-14.222a.949.949,0,0,1-.889-1v-4a.949.949,0,0,1,.889-1h1.277l.389-2a.91.91,0,0,1,.778-1h9.333a.91.91,0,0,1,.779,1l.388,2h1.277a.949.949,0,0,1,.889,1v4A.949.949,0,0,1,1059.134,1058.234Z" transform="translate(-1044.023 -1049.234)" fill="#4b60ff"/>
      </g>
    </g>
    <g id="楕円形_7" data-name="楕円形 7">
      <circle id="楕円形_21" data-name="楕円形 21" cx="3" cy="3" r="3" transform="translate(1050.023 1041.234)" fill="#09adf5"/>
    </g>
    <g id="楕円形_8" data-name="楕円形 8" transform="translate(-1)">
      <circle id="楕円形_22" data-name="楕円形 22" cx="3" cy="3" r="3" transform="translate(1078.023 1062.234)" fill="#09adf5"/>
    </g>
    <g id="楕円形_9" data-name="楕円形 9" transform="translate(1)">
      <circle id="楕円形_23" data-name="楕円形 23" cx="3" cy="3" r="3" transform="translate(1022.023 1062.234)" fill="#09adf5"/>
    </g>
  </g>
</svg>
