<svg xmlns="http://www.w3.org/2000/svg" width="63" height="58.791" viewBox="0 0 63 58.791">
  <g id="グループ_81" data-name="グループ 81" transform="translate(-88.5 -1879.293)">
    <path id="合体_5" data-name="合体 5" d="M2,57.584a2,2,0,0,1-2-2v-34a2,2,0,0,1,2-2H28.5V9.515l-6.237,6.236a2.5,2.5,0,1,1-3.535-3.535L30.947,0,43.164,12.216a2.5,2.5,0,1,1-3.536,3.535L33.5,9.628v9.956H60a2,2,0,0,1,2,2v34a2,2,0,0,1-2,2Zm1-3H59v-32H33.5v5H41v9H21v-9h7.5v-5H3Zm20-20H39v-5H33.5v2.392h-5V29.584H23Z" transform="translate(89 1880)" fill="#4b60ff" stroke="rgba(0,0,0,0)" stroke-miterlimit="10" stroke-width="1"/>
    <g id="グループ_5" data-name="グループ 5" transform="translate(-899.524 889.351)">
      <g id="長方形_107" data-name="長方形 107">
        <rect id="長方形_131" data-name="長方形 131" width="26" height="2" transform="translate(1006.524 1031.649)" fill="#09adf5"/>
      </g>
      <g id="長方形_108" data-name="長方形 108">
        <rect id="長方形_132" data-name="長方形 132" width="26" height="2" transform="translate(1006.524 1037.649)" fill="#09adf5"/>
      </g>
    </g>
  </g>
</svg>
