<svg xmlns="http://www.w3.org/2000/svg" width="70" height="53" viewBox="0 0 70 53">
  <g id="グループ_56" data-name="グループ 56" transform="translate(-1103.911 -1058.672)">
    <g id="合体_5" data-name="合体 5">
      <path id="パス_40" data-name="パス 40" d="M1150.411,1096.672c-12.474-.226-22.5-8.645-22.5-19,0-10.493,10.3-19,23-19s23,8.507,23,19c0,8.43-6.645,15.576-15.843,18.062l-4.157,5.938Z" fill="none"/>
      <path id="パス_41" data-name="パス 41" d="M1153.911,1096.441l1.7-2.427.624-.892,1.051-.284a21.993,21.993,0,0,0,5.594-2.361,18.6,18.6,0,0,0,4.321-3.542,13.831,13.831,0,0,0,3.711-9.263,14.445,14.445,0,0,0-5.648-11.122,20.7,20.7,0,0,0-6.389-3.553,24.591,24.591,0,0,0-15.926,0,20.719,20.719,0,0,0-6.39,3.553,13.763,13.763,0,0,0-.142,22.126,20.586,20.586,0,0,0,6.243,3.568,23.968,23.968,0,0,0,7.8,1.424l1.528.027.876,1.252,1.046,1.494m0,5.231-3.5-5.005c-12.47-.221-22.5-8.64-22.5-18.995,0-10.493,10.3-19,23-19s23,8.507,23,19c0,8.43-6.645,15.576-15.843,18.062Z" fill="#4b60ff"/>
    </g>
    <g id="グループ_13" data-name="グループ 13">
      <rect id="長方形_127" data-name="長方形 127" width="26" height="2" transform="translate(1137.911 1070.672)" fill="#09adf5"/>
      <path id="パス_15" data-name="パス 15" d="M1137.911,1082.672h26v2h-26Z" fill="#09adf5"/>
      <rect id="長方形_129" data-name="長方形 129" width="26" height="2" transform="translate(1137.911 1076.672)" fill="#09adf5"/>
    </g>
    <g id="合体_4" data-name="合体 4" transform="translate(2)">
      <path id="パス_42" data-name="パス 42" d="M1128.911,1109.057l-3.672-5.245-.448-.64H1104.91a1.5,1.5,0,0,1-1.5-1.5v-31a1.5,1.5,0,0,1,1.5-1.5h34a1.5,1.5,0,0,1,1.5,1.5v31a1.5,1.5,0,0,1-1.5,1.5h-5.881l-.448.64Z" fill="#fff"/>
      <path id="パス_43" data-name="パス 43" d="M1128.911,1106.441l2.442-3.489.9-1.28h6.661v-31h-34v31h20.662l.9,1.28,2.443,3.489m0,5.231-4.9-7h-19.1a3,3,0,0,1-3-3v-31a3,3,0,0,1,3-3h34a3,3,0,0,1,3,3v31a3,3,0,0,1-3,3h-5.1Z" fill="#4b60ff"/>
    </g>
    <g id="グループ_14" data-name="グループ 14" transform="translate(2)">
      <rect id="長方形_127-2" data-name="長方形 127-2" width="26" height="2" transform="translate(1108.911 1079.672)" fill="#09adf5"/>
      <rect id="長方形_128" data-name="長方形 128" width="26" height="2" transform="translate(1108.911 1091.672)" fill="#09adf5"/>
      <rect id="長方形_129-2" data-name="長方形 129-2" width="26" height="2" transform="translate(1108.911 1085.672)" fill="#09adf5"/>
    </g>
  </g>
</svg>
